<svg xmlns="http://www.w3.org/2000/svg" viewBox="0 0 1040 276" width="1040" height="276" role="img" aria-label="fault timeline">
<defs>
    <linearGradient id="gBg" x1="0" x2="1" y1="0" y2="1">
      <stop offset="0" stop-color="#0d1117"/>
      <stop offset="1" stop-color="#161b22"/>
    </linearGradient>
    <style>
      .t{font-family:'SFMono-Regular',Consolas,monospace}
      .lb{fill:#8b949e;font-size:10px;text-transform:uppercase;letter-spacing:1.6px}
      .va{fill:#e6edf3;font-size:20px;font-weight:700}
      .vs{fill:#e6edf3;font-size:14px;font-weight:600}
      .lo{fill:#79c0ff;font-size:11px}
      .sub{fill:#8b949e;font-size:11px}
      .g{fill:#3fb950} .a{fill:#e3b341} .r{fill:#f85149}
      .p{fill:#a371f7} .o{fill:#f0883e}
      .pulse{animation:plz 1.8s ease-out infinite}
      @keyframes plz{
        0%{transform:scale(1);opacity:.85}
        45%{transform:scale(1.35);opacity:.3}
        100%{transform:scale(1.8);opacity:0}
      }
      .spin{animation:sp 4s linear infinite;transform-origin:center}
      @keyframes sp{from{transform:rotate(0)}to{transform:rotate(360deg)}}
    </style>
  </defs>
<rect width="1040" height="36" rx="10" fill="url(#gBg)"/>
  <rect x="0" y="0" width="1040" height="36" rx="10" fill="#161b22"/>
  <rect x="0" y="26" width="1040" height="10" fill="#161b22"/>
  <circle cx="22" cy="18" r="6" fill="#ff5f56"/>
  <circle cx="44" cy="18" r="6" fill="#ffbd2e"/>
  <circle cx="66" cy="18" r="6" fill="#27c93f"/>
  <text x="520" y="22" text-anchor="middle" class="t" font-size="12" fill="#8b949e">⚒ fault timeline · 7 faults in state.db · active + cleared</text>
<rect y="36" width="1040" height="240" fill="url(#gBg)"/>
<text x="14" y="74" class="t sub">#7</text>
<text x="50" y="74" class="t" font-size="11" fill="#e6edf3">tool_failure</text>
<text x="150" y="74" class="t sub">tool:tag:r</text>
<rect x="302" y="64" width="718" height="14" rx="3" fill="#f85149" opacity="1"/>
<text x="1026" y="74" text-anchor="end" class="t sub" fill="#f85149">ACTIVE</text>
<text x="14" y="102" class="t sub">#6</text>
<text x="50" y="102" class="t" font-size="11" fill="#e6edf3">tool_failure</text>
<text x="150" y="102" class="t sub">tool:tag:r</text>
<rect x="302" y="92" width="718" height="14" rx="3" fill="#f85149" opacity="1"/>
<text x="1026" y="102" text-anchor="end" class="t sub" fill="#f85149">ACTIVE</text>
<text x="14" y="130" class="t sub">#5</text>
<text x="50" y="130" class="t" font-size="11" fill="#e6edf3">build_failur</text>
<text x="150" y="130" class="t sub">api.papers</text>
<rect x="239" y="120" width="16" height="14" rx="3" fill="#8b949e" opacity="0.4"/>
<text x="1026" y="130" text-anchor="end" class="t sub" fill="#8b949e">cleared</text>
<text x="14" y="158" class="t sub">#4</text>
<text x="50" y="158" class="t" font-size="11" fill="#e6edf3">tool_failure</text>
<text x="150" y="158" class="t sub">tool:build</text>
<rect x="239" y="148" width="781" height="14" rx="3" fill="#f85149" opacity="1"/>
<text x="1026" y="158" text-anchor="end" class="t sub" fill="#f85149">ACTIVE</text>
<text x="14" y="186" class="t sub">#3</text>
<text x="50" y="186" class="t" font-size="11" fill="#e6edf3">tool_failure</text>
<text x="150" y="186" class="t sub">tool:build</text>
<rect x="225" y="176" width="4" height="14" rx="3" fill="#8b949e" opacity="0.4"/>
<text x="1026" y="186" text-anchor="end" class="t sub" fill="#8b949e">cleared</text>
<text x="14" y="214" class="t sub">#2</text>
<text x="50" y="214" class="t" font-size="11" fill="#e6edf3">tool_failure</text>
<text x="150" y="214" class="t sub">tool:scrip</text>
<rect x="220" y="204" width="8" height="14" rx="3" fill="#8b949e" opacity="0.4"/>
<text x="1026" y="214" text-anchor="end" class="t sub" fill="#8b949e">cleared</text>
<text x="14" y="242" class="t sub">#1</text>
<text x="50" y="242" class="t" font-size="11" fill="#e6edf3">tool_failure</text>
<text x="150" y="242" class="t sub">tool:scrip</text>
<rect x="220" y="232" width="4" height="14" rx="3" fill="#8b949e" opacity="0.4"/>
<text x="1026" y="242" text-anchor="end" class="t sub" fill="#8b949e">cleared</text>
</svg>