<svg xmlns="http://www.w3.org/2000/svg" viewBox="0 0 1040 416" width="1040" height="416" role="img" aria-label="SPOT patrol report">
<defs>
    <linearGradient id="gBg" x1="0" x2="1" y1="0" y2="1">
      <stop offset="0" stop-color="#0d1117"/>
      <stop offset="1" stop-color="#161b22"/>
    </linearGradient>
    <style>
      .t{font-family:'SFMono-Regular',Consolas,monospace}
      .lb{fill:#8b949e;font-size:10px;text-transform:uppercase;letter-spacing:1.6px}
      .va{fill:#e6edf3;font-size:20px;font-weight:700}
      .vs{fill:#e6edf3;font-size:14px;font-weight:600}
      .lo{fill:#79c0ff;font-size:11px}
      .sub{fill:#8b949e;font-size:11px}
      .g{fill:#3fb950} .a{fill:#e3b341} .r{fill:#f85149}
      .p{fill:#a371f7} .o{fill:#f0883e}
      .pulse{animation:plz 1.8s ease-out infinite}
      @keyframes plz{
        0%{transform:scale(1);opacity:.85}
        45%{transform:scale(1.35);opacity:.3}
        100%{transform:scale(1.8);opacity:0}
      }
      .spin{animation:sp 4s linear infinite;transform-origin:center}
      @keyframes sp{from{transform:rotate(0)}to{transform:rotate(360deg)}}
    </style>
  </defs>
<rect width="1040" height="416" rx="10" fill="url(#gBg)"/>
  <rect x="0" y="0" width="1040" height="36" rx="10" fill="#161b22"/>
  <rect x="0" y="26" width="1040" height="10" fill="#161b22"/>
  <circle cx="22" cy="18" r="6" fill="#ff5f56"/>
  <circle cx="44" cy="18" r="6" fill="#ffbd2e"/>
  <circle cx="66" cy="18" r="6" fill="#27c93f"/>
  <text x="520" y="22" text-anchor="middle" class="t" font-size="12" fill="#8b949e">🐕 SPOT patrol · mine→origin sweep · ok=3 warn=2 alarm=1</text>
<g aria-label="SPOT patrol dog">
    <!-- tail -->
    <path d="M28.0,84.0 Q18.0,76.0 22.0,66.0" stroke="#e6edf3" stroke-width="5.0" fill="none" stroke-linecap="round"/>
    <!-- body -->
    <rect x="28.0" y="78.0" width="70.0" height="22.0" rx="6.0" fill="#e6edf3" stroke="#30363d" stroke-width="1.5"/>
    <!-- legs (front/back pairs) -->
    <rect x="34.0"  y="98.0" width="8.0" height="18.0" rx="2" fill="#8b949e"/>
    <rect x="46.0" y="98.0" width="8.0" height="22.0" rx="2" fill="#e6edf3"/>
    <rect x="74.0" y="98.0" width="8.0" height="22.0" rx="2" fill="#e6edf3"/>
    <rect x="86.0" y="98.0" width="8.0" height="18.0" rx="2" fill="#8b949e"/>
    <!-- head + neck -->
    <path d="M88.0,82.0 L106.0,66.0 L132.0,66.0 L132.0,86.0 L100.0,86.0 Z" fill="#e6edf3" stroke="#30363d" stroke-width="1.5"/>
    <!-- ear -->
    <path d="M108.0,66.0 L104.0,56.0 L118.0,64.0 Z" fill="#30363d"/>
    <!-- eye -->
    <circle cx="122.0" cy="74.0" r="1.8" fill="#0d1117"/>
    <!-- nose -->
    <rect x="128.0" y="76.0" width="4.0" height="4.0" fill="#0d1117"/>
    <!-- police badge (shield) on flank -->
    <path d="M58.0,82.0 L74.0,82.0 L74.0,92.0 Q66.0,102.0 58.0,92.0 Z" fill="#79c0ff" stroke="#0d1117" stroke-width="1"/>
    <text x="66.0" y="91.0" text-anchor="middle" font-family="'SFMono-Regular',Consolas,monospace" font-size="8.0" font-weight="700" fill="#0d1117">K9</text>
    <!-- status lamp on top of head -->
    <circle cx="118.0" cy="62.0" r="3.2" fill="#f85149"/>
    <circle cx="118.0" cy="62.0" r="5.5" fill="none" stroke="#f85149" stroke-width="1.2" opacity=".45" class="pulse"/>
  </g>
<text x="160" y="72" class="t vs" font-size="16" font-weight="700" fill="#e6edf3">SPOT · SCADA patrol agent</text>
<text x="160" y="92" class="t sub">teslasolar treats origin as the plant; SPOT walks a beat every sweep and barks on drift, broken links, prompt-injection, exposed secrets, manifesto tampering, and IEC 61131-3 tag-type violations.</text>
<text x="160" y="112" class="t sub">last sweep 2026-04-21T14:15:30Z · duration 1024ms · worst status <tspan fill="#f85149" font-weight="700">ALARM</tspan></text>
<line x1="40" y1="124" x2="1000" y2="124" stroke="#30363d" stroke-width="1"/>
<g style="transform-origin:62px 144px">
    <circle cx="62" cy="144" r="10" fill="none" stroke="#e3b341" stroke-width="2" opacity=".5" class="pulse"/>
    <circle cx="62" cy="144" r="10" fill="none" stroke="#e3b341" stroke-width="2" opacity=".5" class="pulse" style="animation-delay:.6s"/>
  </g>
  <circle cx="62" cy="144" r="6" class="a"/>
<text x="92" y="148" class="t vs">origin heartbeat</text>
<text x="92" y="164" class="t sub">changed  sha 5e0a0ed499b6→46085551f5e7  Δ-24212b</text>
<g><rect x="880" y="132" rx="11" width="68" height="22" fill="none" stroke="#e3b341" stroke-width="1" opacity=".6"/><text x="914" y="147" text-anchor="middle" class="t" font-size="11" fill="#e3b341">WARN</text></g>
<text x="1000" y="148" text-anchor="end" class="t sub">65ms</text>
<g style="transform-origin:62px 184px">
    <circle cx="62" cy="184" r="10" fill="none" stroke="#3fb950" stroke-width="2" opacity=".5" class="pulse"/>
    <circle cx="62" cy="184" r="10" fill="none" stroke="#3fb950" stroke-width="2" opacity=".5" class="pulse" style="animation-delay:.6s"/>
  </g>
  <circle cx="62" cy="184" r="6" class="g"/>
<text x="92" y="188" class="t vs">link patrol</text>
<text x="92" y="204" class="t sub">8 links 2xx</text>
<g><rect x="880" y="172" rx="11" width="68" height="22" fill="none" stroke="#3fb950" stroke-width="1" opacity=".6"/><text x="914" y="187" text-anchor="middle" class="t" font-size="11" fill="#3fb950">OK</text></g>
<text x="1000" y="188" text-anchor="end" class="t sub">448ms</text>
<g style="transform-origin:62px 224px">
    <circle cx="62" cy="224" r="10" fill="none" stroke="#3fb950" stroke-width="2" opacity=".5" class="pulse"/>
    <circle cx="62" cy="224" r="10" fill="none" stroke="#3fb950" stroke-width="2" opacity=".5" class="pulse" style="animation-delay:.6s"/>
  </g>
  <circle cx="62" cy="224" r="6" class="g"/>
<text x="92" y="228" class="t vs">origin HTML scan</text>
<text x="92" y="244" class="t sub">8/8 pages clean (no injection, no secrets)</text>
<g><rect x="880" y="212" rx="11" width="68" height="22" fill="none" stroke="#3fb950" stroke-width="1" opacity=".6"/><text x="914" y="227" text-anchor="middle" class="t" font-size="11" fill="#3fb950">OK</text></g>
<text x="1000" y="228" text-anchor="end" class="t sub">328ms</text>
<g style="transform-origin:62px 264px">
    <circle cx="62" cy="264" r="10" fill="none" stroke="#f85149" stroke-width="2" opacity=".5" class="pulse"/>
    <circle cx="62" cy="264" r="10" fill="none" stroke="#f85149" stroke-width="2" opacity=".5" class="pulse" style="animation-delay:.6s"/>
  </g>
  <circle cx="62" cy="264" r="6" class="r"/>
<text x="92" y="268" class="t vs">manifesto tamper-watch</text>
<text x="92" y="284" class="t sub">TAMPER  sha b3e87e7d7781→799cb96bdfa3  Δ-12465b</text>
<g><rect x="880" y="252" rx="11" width="68" height="22" fill="none" stroke="#f85149" stroke-width="1" opacity=".6"/><text x="914" y="267" text-anchor="middle" class="t" font-size="11" fill="#f85149">ALARM</text></g>
<text x="1000" y="268" text-anchor="end" class="t sub">31ms</text>
<g style="transform-origin:62px 304px">
    <circle cx="62" cy="304" r="10" fill="none" stroke="#e3b341" stroke-width="2" opacity=".5" class="pulse"/>
    <circle cx="62" cy="304" r="10" fill="none" stroke="#e3b341" stroke-width="2" opacity=".5" class="pulse" style="animation-delay:.6s"/>
  </g>
  <circle cx="62" cy="304" r="6" class="a"/>
<text x="92" y="308" class="t vs">manifesto sheet</text>
<text x="92" y="324" class="t sub">no sheet_id configured (set SPOT_MANIFESTO_SHEET_ID)</text>
<g><rect x="880" y="292" rx="11" width="68" height="22" fill="none" stroke="#e3b341" stroke-width="1" opacity=".6"/><text x="914" y="307" text-anchor="middle" class="t" font-size="11" fill="#e3b341">WARN</text></g>
<text x="1000" y="308" text-anchor="end" class="t sub">0ms</text>
<g style="transform-origin:62px 344px">
    <circle cx="62" cy="344" r="10" fill="none" stroke="#3fb950" stroke-width="2" opacity=".5" class="pulse"/>
    <circle cx="62" cy="344" r="10" fill="none" stroke="#3fb950" stroke-width="2" opacity=".5" class="pulse" style="animation-delay:.6s"/>
  </g>
  <circle cx="62" cy="344" r="6" class="g"/>
<text x="92" y="348" class="t vs">IEC 61131-3 tag types</text>
<text x="92" y="364" class="t sub">20/20 typed (ACG→61131 mapped)</text>
<g><rect x="880" y="332" rx="11" width="68" height="22" fill="none" stroke="#3fb950" stroke-width="1" opacity=".6"/><text x="914" y="347" text-anchor="middle" class="t" font-size="11" fill="#3fb950">OK</text></g>
<text x="1000" y="348" text-anchor="end" class="t sub">148ms</text>
<line x1="40" y1="380" x2="1000" y2="380" stroke="#30363d" stroke-width="1"/>
<text x="40" y="402" class="t sub">beats: fork-drift · link-health · paper-injection · paper-crypto · manifesto-sheet · isa-61131</text>
<text x="1016" y="402" text-anchor="end" class="t sub">2026-04-21T14:15:30Z</text>
</svg>