<svg xmlns="http://www.w3.org/2000/svg" viewBox="0 0 1080 592" width="1080" height="592" role="img" aria-label="tag density heatmap">
<defs>
    <linearGradient id="gBg" x1="0" x2="1" y1="0" y2="1">
      <stop offset="0" stop-color="#0d1117"/>
      <stop offset="1" stop-color="#161b22"/>
    </linearGradient>
    <style>
      .t{font-family:'SFMono-Regular',Consolas,monospace}
      .lb{fill:#8b949e;font-size:10px;text-transform:uppercase;letter-spacing:1.6px}
      .va{fill:#e6edf3;font-size:20px;font-weight:700}
      .vs{fill:#e6edf3;font-size:14px;font-weight:600}
      .lo{fill:#79c0ff;font-size:11px}
      .sub{fill:#8b949e;font-size:11px}
      .g{fill:#3fb950} .a{fill:#e3b341} .r{fill:#f85149}
      .p{fill:#a371f7} .o{fill:#f0883e}
      .pulse{animation:plz 1.8s ease-out infinite}
      @keyframes plz{
        0%{transform:scale(1);opacity:.85}
        45%{transform:scale(1.35);opacity:.3}
        100%{transform:scale(1.8);opacity:0}
      }
      .spin{animation:sp 4s linear infinite;transform-origin:center}
      @keyframes sp{from{transform:rotate(0)}to{transform:rotate(360deg)}}
    </style>
  </defs>
<rect width="1080" height="36" rx="10" fill="url(#gBg)"/>
  <rect x="0" y="0" width="1080" height="36" rx="10" fill="#161b22"/>
  <rect x="0" y="26" width="1080" height="10" fill="#161b22"/>
  <circle cx="22" cy="18" r="6" fill="#ff5f56"/>
  <circle cx="44" cy="18" r="6" fill="#ffbd2e"/>
  <circle cx="66" cy="18" r="6" fill="#27c93f"/>
  <text x="540" y="22" text-anchor="middle" class="t" font-size="12" fill="#8b949e">⚒ tag heatmap · 18 dirs × 21 UDT types · brightness = log(count)</text>
<rect y="36" width="1080" height="556" fill="url(#gBg)"/>
<text x="317" y="68" text-anchor="middle" class="t" font-size="9" fill="#8b949e" transform="rotate(-45 317 68)">Tool</text>
<text x="353" y="68" text-anchor="middle" class="t" font-size="9" fill="#8b949e" transform="rotate(-45 353 68)">Script</text>
<text x="389" y="68" text-anchor="middle" class="t" font-size="9" fill="#8b949e" transform="rotate(-45 389 68)">Path</text>
<text x="425" y="68" text-anchor="middle" class="t" font-size="9" fill="#8b949e" transform="rotate(-45 425 68)">Page</text>
<text x="461" y="68" text-anchor="middle" class="t" font-size="9" fill="#8b949e" transform="rotate(-45 461 68)">View</text>
<text x="497" y="68" text-anchor="middle" class="t" font-size="9" fill="#8b949e" transform="rotate(-45 497 68)">Component</text>
<text x="533" y="68" text-anchor="middle" class="t" font-size="9" fill="#8b949e" transform="rotate(-45 533 68)">App</text>
<text x="569" y="68" text-anchor="middle" class="t" font-size="9" fill="#8b949e" transform="rotate(-45 569 68)">WhitePaper</text>
<text x="605" y="68" text-anchor="middle" class="t" font-size="9" fill="#8b949e" transform="rotate(-45 605 68)">Member</text>
<text x="641" y="68" text-anchor="middle" class="t" font-size="9" fill="#8b949e" transform="rotate(-45 641 68)">Program</text>
<text x="677" y="68" text-anchor="middle" class="t" font-size="9" fill="#8b949e" transform="rotate(-45 677 68)">SvgAtom</text>
<text x="713" y="68" text-anchor="middle" class="t" font-size="9" fill="#8b949e" transform="rotate(-45 713 68)">SvgMolecule</text>
<text x="749" y="68" text-anchor="middle" class="t" font-size="9" fill="#8b949e" transform="rotate(-45 749 68)">SvgOrganism</text>
<text x="785" y="68" text-anchor="middle" class="t" font-size="9" fill="#8b949e" transform="rotate(-45 785 68)">PackMLState</text>
<text x="821" y="68" text-anchor="middle" class="t" font-size="9" fill="#8b949e" transform="rotate(-45 821 68)">Query</text>
<text x="857" y="68" text-anchor="middle" class="t" font-size="9" fill="#8b949e" transform="rotate(-45 857 68)">Api</text>
<text x="893" y="68" text-anchor="middle" class="t" font-size="9" fill="#8b949e" transform="rotate(-45 893 68)">Pipeline</text>
<text x="929" y="68" text-anchor="middle" class="t" font-size="9" fill="#8b949e" transform="rotate(-45 929 68)">DataBinding</text>
<text x="965" y="68" text-anchor="middle" class="t" font-size="9" fill="#8b949e" transform="rotate(-45 965 68)">FsPath</text>
<text x="1001" y="68" text-anchor="middle" class="t" font-size="9" fill="#8b949e" transform="rotate(-45 1001 68)">Widget</text>
<text x="1037" y="68" text-anchor="middle" class="t" font-size="9" fill="#8b949e" transform="rotate(-45 1037 68)">Tag</text>
<text x="292" y="95" text-anchor="end" class="t" font-size="10" fill="#e6edf3">guild/Enterprise/L3/tools/instances</text>
<text x="292" y="105" text-anchor="end" class="t" font-size="9" fill="#8b949e">84</text>
<rect x="300" y="80" width="34" height="22" rx="2" fill="#3fb950" opacity="1.00"/>
<text x="317" y="94" text-anchor="middle" class="t" font-size="9" fill="#0d1117">84</text>
<rect x="336" y="80" width="34" height="22" rx="2" fill="#161b22" opacity="0.4"/>
<rect x="372" y="80" width="34" height="22" rx="2" fill="#161b22" opacity="0.4"/>
<rect x="408" y="80" width="34" height="22" rx="2" fill="#161b22" opacity="0.4"/>
<rect x="444" y="80" width="34" height="22" rx="2" fill="#161b22" opacity="0.4"/>
<rect x="480" y="80" width="34" height="22" rx="2" fill="#161b22" opacity="0.4"/>
<rect x="516" y="80" width="34" height="22" rx="2" fill="#161b22" opacity="0.4"/>
<rect x="552" y="80" width="34" height="22" rx="2" fill="#161b22" opacity="0.4"/>
<rect x="588" y="80" width="34" height="22" rx="2" fill="#161b22" opacity="0.4"/>
<rect x="624" y="80" width="34" height="22" rx="2" fill="#161b22" opacity="0.4"/>
<rect x="660" y="80" width="34" height="22" rx="2" fill="#161b22" opacity="0.4"/>
<rect x="696" y="80" width="34" height="22" rx="2" fill="#161b22" opacity="0.4"/>
<rect x="732" y="80" width="34" height="22" rx="2" fill="#161b22" opacity="0.4"/>
<rect x="768" y="80" width="34" height="22" rx="2" fill="#161b22" opacity="0.4"/>
<rect x="804" y="80" width="34" height="22" rx="2" fill="#161b22" opacity="0.4"/>
<rect x="840" y="80" width="34" height="22" rx="2" fill="#161b22" opacity="0.4"/>
<rect x="876" y="80" width="34" height="22" rx="2" fill="#161b22" opacity="0.4"/>
<rect x="912" y="80" width="34" height="22" rx="2" fill="#161b22" opacity="0.4"/>
<rect x="948" y="80" width="34" height="22" rx="2" fill="#161b22" opacity="0.4"/>
<rect x="984" y="80" width="34" height="22" rx="2" fill="#161b22" opacity="0.4"/>
<rect x="1020" y="80" width="34" height="22" rx="2" fill="#161b22" opacity="0.4"/>
<text x="292" y="119" text-anchor="end" class="t" font-size="10" fill="#e6edf3">…erprise/L3/components/udts/instances/paths</text>
<text x="292" y="129" text-anchor="end" class="t" font-size="9" fill="#8b949e">47</text>
<rect x="300" y="104" width="34" height="22" rx="2" fill="#161b22" opacity="0.4"/>
<rect x="336" y="104" width="34" height="22" rx="2" fill="#161b22" opacity="0.4"/>
<rect x="372" y="104" width="34" height="22" rx="2" fill="#3fb950" opacity="0.89"/>
<text x="389" y="118" text-anchor="middle" class="t" font-size="9" fill="#0d1117">47</text>
<rect x="408" y="104" width="34" height="22" rx="2" fill="#161b22" opacity="0.4"/>
<rect x="444" y="104" width="34" height="22" rx="2" fill="#161b22" opacity="0.4"/>
<rect x="480" y="104" width="34" height="22" rx="2" fill="#161b22" opacity="0.4"/>
<rect x="516" y="104" width="34" height="22" rx="2" fill="#161b22" opacity="0.4"/>
<rect x="552" y="104" width="34" height="22" rx="2" fill="#161b22" opacity="0.4"/>
<rect x="588" y="104" width="34" height="22" rx="2" fill="#161b22" opacity="0.4"/>
<rect x="624" y="104" width="34" height="22" rx="2" fill="#161b22" opacity="0.4"/>
<rect x="660" y="104" width="34" height="22" rx="2" fill="#161b22" opacity="0.4"/>
<rect x="696" y="104" width="34" height="22" rx="2" fill="#161b22" opacity="0.4"/>
<rect x="732" y="104" width="34" height="22" rx="2" fill="#161b22" opacity="0.4"/>
<rect x="768" y="104" width="34" height="22" rx="2" fill="#161b22" opacity="0.4"/>
<rect x="804" y="104" width="34" height="22" rx="2" fill="#161b22" opacity="0.4"/>
<rect x="840" y="104" width="34" height="22" rx="2" fill="#161b22" opacity="0.4"/>
<rect x="876" y="104" width="34" height="22" rx="2" fill="#161b22" opacity="0.4"/>
<rect x="912" y="104" width="34" height="22" rx="2" fill="#161b22" opacity="0.4"/>
<rect x="948" y="104" width="34" height="22" rx="2" fill="#161b22" opacity="0.4"/>
<rect x="984" y="104" width="34" height="22" rx="2" fill="#161b22" opacity="0.4"/>
<rect x="1020" y="104" width="34" height="22" rx="2" fill="#161b22" opacity="0.4"/>
<text x="292" y="143" text-anchor="end" class="t" font-size="10" fill="#e6edf3">guild/apps/whitepapers/pages</text>
<text x="292" y="153" text-anchor="end" class="t" font-size="9" fill="#8b949e">25</text>
<rect x="300" y="128" width="34" height="22" rx="2" fill="#161b22" opacity="0.4"/>
<rect x="336" y="128" width="34" height="22" rx="2" fill="#161b22" opacity="0.4"/>
<rect x="372" y="128" width="34" height="22" rx="2" fill="#161b22" opacity="0.4"/>
<rect x="408" y="128" width="34" height="22" rx="2" fill="#3fb950" opacity="0.77"/>
<text x="425" y="142" text-anchor="middle" class="t" font-size="9" fill="#0d1117">25</text>
<rect x="444" y="128" width="34" height="22" rx="2" fill="#161b22" opacity="0.4"/>
<rect x="480" y="128" width="34" height="22" rx="2" fill="#161b22" opacity="0.4"/>
<rect x="516" y="128" width="34" height="22" rx="2" fill="#161b22" opacity="0.4"/>
<rect x="552" y="128" width="34" height="22" rx="2" fill="#161b22" opacity="0.4"/>
<rect x="588" y="128" width="34" height="22" rx="2" fill="#161b22" opacity="0.4"/>
<rect x="624" y="128" width="34" height="22" rx="2" fill="#161b22" opacity="0.4"/>
<rect x="660" y="128" width="34" height="22" rx="2" fill="#161b22" opacity="0.4"/>
<rect x="696" y="128" width="34" height="22" rx="2" fill="#161b22" opacity="0.4"/>
<rect x="732" y="128" width="34" height="22" rx="2" fill="#161b22" opacity="0.4"/>
<rect x="768" y="128" width="34" height="22" rx="2" fill="#161b22" opacity="0.4"/>
<rect x="804" y="128" width="34" height="22" rx="2" fill="#161b22" opacity="0.4"/>
<rect x="840" y="128" width="34" height="22" rx="2" fill="#161b22" opacity="0.4"/>
<rect x="876" y="128" width="34" height="22" rx="2" fill="#161b22" opacity="0.4"/>
<rect x="912" y="128" width="34" height="22" rx="2" fill="#161b22" opacity="0.4"/>
<rect x="948" y="128" width="34" height="22" rx="2" fill="#161b22" opacity="0.4"/>
<rect x="984" y="128" width="34" height="22" rx="2" fill="#161b22" opacity="0.4"/>
<rect x="1020" y="128" width="34" height="22" rx="2" fill="#161b22" opacity="0.4"/>
<text x="292" y="167" text-anchor="end" class="t" font-size="10" fill="#e6edf3">guild/apps/whitepapers/udts/instances</text>
<text x="292" y="177" text-anchor="end" class="t" font-size="9" fill="#8b949e">25</text>
<rect x="300" y="152" width="34" height="22" rx="2" fill="#161b22" opacity="0.4"/>
<rect x="336" y="152" width="34" height="22" rx="2" fill="#161b22" opacity="0.4"/>
<rect x="372" y="152" width="34" height="22" rx="2" fill="#161b22" opacity="0.4"/>
<rect x="408" y="152" width="34" height="22" rx="2" fill="#161b22" opacity="0.4"/>
<rect x="444" y="152" width="34" height="22" rx="2" fill="#161b22" opacity="0.4"/>
<rect x="480" y="152" width="34" height="22" rx="2" fill="#161b22" opacity="0.4"/>
<rect x="516" y="152" width="34" height="22" rx="2" fill="#3fb950" opacity="0.77"/>
<text x="533" y="166" text-anchor="middle" class="t" font-size="9" fill="#0d1117">25</text>
<rect x="552" y="152" width="34" height="22" rx="2" fill="#161b22" opacity="0.4"/>
<rect x="588" y="152" width="34" height="22" rx="2" fill="#161b22" opacity="0.4"/>
<rect x="624" y="152" width="34" height="22" rx="2" fill="#161b22" opacity="0.4"/>
<rect x="660" y="152" width="34" height="22" rx="2" fill="#161b22" opacity="0.4"/>
<rect x="696" y="152" width="34" height="22" rx="2" fill="#161b22" opacity="0.4"/>
<rect x="732" y="152" width="34" height="22" rx="2" fill="#161b22" opacity="0.4"/>
<rect x="768" y="152" width="34" height="22" rx="2" fill="#161b22" opacity="0.4"/>
<rect x="804" y="152" width="34" height="22" rx="2" fill="#161b22" opacity="0.4"/>
<rect x="840" y="152" width="34" height="22" rx="2" fill="#161b22" opacity="0.4"/>
<rect x="876" y="152" width="34" height="22" rx="2" fill="#161b22" opacity="0.4"/>
<rect x="912" y="152" width="34" height="22" rx="2" fill="#161b22" opacity="0.4"/>
<rect x="948" y="152" width="34" height="22" rx="2" fill="#161b22" opacity="0.4"/>
<rect x="984" y="152" width="34" height="22" rx="2" fill="#161b22" opacity="0.4"/>
<rect x="1020" y="152" width="34" height="22" rx="2" fill="#161b22" opacity="0.4"/>
<text x="292" y="191" text-anchor="end" class="t" font-size="10" fill="#e6edf3">…erprise/L4/api/white-papers/udts/instances</text>
<text x="292" y="201" text-anchor="end" class="t" font-size="9" fill="#8b949e">24</text>
<rect x="300" y="176" width="34" height="22" rx="2" fill="#161b22" opacity="0.4"/>
<rect x="336" y="176" width="34" height="22" rx="2" fill="#161b22" opacity="0.4"/>
<rect x="372" y="176" width="34" height="22" rx="2" fill="#161b22" opacity="0.4"/>
<rect x="408" y="176" width="34" height="22" rx="2" fill="#161b22" opacity="0.4"/>
<rect x="444" y="176" width="34" height="22" rx="2" fill="#161b22" opacity="0.4"/>
<rect x="480" y="176" width="34" height="22" rx="2" fill="#161b22" opacity="0.4"/>
<rect x="516" y="176" width="34" height="22" rx="2" fill="#161b22" opacity="0.4"/>
<rect x="552" y="176" width="34" height="22" rx="2" fill="#3fb950" opacity="0.77"/>
<text x="569" y="190" text-anchor="middle" class="t" font-size="9" fill="#0d1117">24</text>
<rect x="588" y="176" width="34" height="22" rx="2" fill="#161b22" opacity="0.4"/>
<rect x="624" y="176" width="34" height="22" rx="2" fill="#161b22" opacity="0.4"/>
<rect x="660" y="176" width="34" height="22" rx="2" fill="#161b22" opacity="0.4"/>
<rect x="696" y="176" width="34" height="22" rx="2" fill="#161b22" opacity="0.4"/>
<rect x="732" y="176" width="34" height="22" rx="2" fill="#161b22" opacity="0.4"/>
<rect x="768" y="176" width="34" height="22" rx="2" fill="#161b22" opacity="0.4"/>
<rect x="804" y="176" width="34" height="22" rx="2" fill="#161b22" opacity="0.4"/>
<rect x="840" y="176" width="34" height="22" rx="2" fill="#161b22" opacity="0.4"/>
<rect x="876" y="176" width="34" height="22" rx="2" fill="#161b22" opacity="0.4"/>
<rect x="912" y="176" width="34" height="22" rx="2" fill="#161b22" opacity="0.4"/>
<rect x="948" y="176" width="34" height="22" rx="2" fill="#161b22" opacity="0.4"/>
<rect x="984" y="176" width="34" height="22" rx="2" fill="#161b22" opacity="0.4"/>
<rect x="1020" y="176" width="34" height="22" rx="2" fill="#161b22" opacity="0.4"/>
<text x="292" y="215" text-anchor="end" class="t" font-size="10" fill="#e6edf3">guild/Enterprise/L4/programs/instances</text>
<text x="292" y="225" text-anchor="end" class="t" font-size="9" fill="#8b949e">23</text>
<rect x="300" y="200" width="34" height="22" rx="2" fill="#161b22" opacity="0.4"/>
<rect x="336" y="200" width="34" height="22" rx="2" fill="#161b22" opacity="0.4"/>
<rect x="372" y="200" width="34" height="22" rx="2" fill="#161b22" opacity="0.4"/>
<rect x="408" y="200" width="34" height="22" rx="2" fill="#161b22" opacity="0.4"/>
<rect x="444" y="200" width="34" height="22" rx="2" fill="#161b22" opacity="0.4"/>
<rect x="480" y="200" width="34" height="22" rx="2" fill="#161b22" opacity="0.4"/>
<rect x="516" y="200" width="34" height="22" rx="2" fill="#161b22" opacity="0.4"/>
<rect x="552" y="200" width="34" height="22" rx="2" fill="#161b22" opacity="0.4"/>
<rect x="588" y="200" width="34" height="22" rx="2" fill="#161b22" opacity="0.4"/>
<rect x="624" y="200" width="34" height="22" rx="2" fill="#3fb950" opacity="0.76"/>
<text x="641" y="214" text-anchor="middle" class="t" font-size="9" fill="#0d1117">23</text>
<rect x="660" y="200" width="34" height="22" rx="2" fill="#161b22" opacity="0.4"/>
<rect x="696" y="200" width="34" height="22" rx="2" fill="#161b22" opacity="0.4"/>
<rect x="732" y="200" width="34" height="22" rx="2" fill="#161b22" opacity="0.4"/>
<rect x="768" y="200" width="34" height="22" rx="2" fill="#161b22" opacity="0.4"/>
<rect x="804" y="200" width="34" height="22" rx="2" fill="#161b22" opacity="0.4"/>
<rect x="840" y="200" width="34" height="22" rx="2" fill="#161b22" opacity="0.4"/>
<rect x="876" y="200" width="34" height="22" rx="2" fill="#161b22" opacity="0.4"/>
<rect x="912" y="200" width="34" height="22" rx="2" fill="#161b22" opacity="0.4"/>
<rect x="948" y="200" width="34" height="22" rx="2" fill="#161b22" opacity="0.4"/>
<rect x="984" y="200" width="34" height="22" rx="2" fill="#161b22" opacity="0.4"/>
<rect x="1020" y="200" width="34" height="22" rx="2" fill="#161b22" opacity="0.4"/>
<text x="292" y="239" text-anchor="end" class="t" font-size="10" fill="#e6edf3">guild/Enterprise/L2/hmi/web/pages</text>
<text x="292" y="249" text-anchor="end" class="t" font-size="9" fill="#8b949e">19</text>
<rect x="300" y="224" width="34" height="22" rx="2" fill="#161b22" opacity="0.4"/>
<rect x="336" y="224" width="34" height="22" rx="2" fill="#161b22" opacity="0.4"/>
<rect x="372" y="224" width="34" height="22" rx="2" fill="#161b22" opacity="0.4"/>
<rect x="408" y="224" width="34" height="22" rx="2" fill="#3fb950" opacity="0.72"/>
<text x="425" y="238" text-anchor="middle" class="t" font-size="9" fill="#0d1117">19</text>
<rect x="444" y="224" width="34" height="22" rx="2" fill="#161b22" opacity="0.4"/>
<rect x="480" y="224" width="34" height="22" rx="2" fill="#161b22" opacity="0.4"/>
<rect x="516" y="224" width="34" height="22" rx="2" fill="#161b22" opacity="0.4"/>
<rect x="552" y="224" width="34" height="22" rx="2" fill="#161b22" opacity="0.4"/>
<rect x="588" y="224" width="34" height="22" rx="2" fill="#161b22" opacity="0.4"/>
<rect x="624" y="224" width="34" height="22" rx="2" fill="#161b22" opacity="0.4"/>
<rect x="660" y="224" width="34" height="22" rx="2" fill="#161b22" opacity="0.4"/>
<rect x="696" y="224" width="34" height="22" rx="2" fill="#161b22" opacity="0.4"/>
<rect x="732" y="224" width="34" height="22" rx="2" fill="#161b22" opacity="0.4"/>
<rect x="768" y="224" width="34" height="22" rx="2" fill="#161b22" opacity="0.4"/>
<rect x="804" y="224" width="34" height="22" rx="2" fill="#161b22" opacity="0.4"/>
<rect x="840" y="224" width="34" height="22" rx="2" fill="#161b22" opacity="0.4"/>
<rect x="876" y="224" width="34" height="22" rx="2" fill="#161b22" opacity="0.4"/>
<rect x="912" y="224" width="34" height="22" rx="2" fill="#161b22" opacity="0.4"/>
<rect x="948" y="224" width="34" height="22" rx="2" fill="#161b22" opacity="0.4"/>
<rect x="984" y="224" width="34" height="22" rx="2" fill="#161b22" opacity="0.4"/>
<rect x="1020" y="224" width="34" height="22" rx="2" fill="#161b22" opacity="0.4"/>
<text x="292" y="263" text-anchor="end" class="t" font-size="10" fill="#e6edf3">guild/Enterprise/L2/hmi/web/views</text>
<text x="292" y="273" text-anchor="end" class="t" font-size="9" fill="#8b949e">19</text>
<rect x="300" y="248" width="34" height="22" rx="2" fill="#161b22" opacity="0.4"/>
<rect x="336" y="248" width="34" height="22" rx="2" fill="#161b22" opacity="0.4"/>
<rect x="372" y="248" width="34" height="22" rx="2" fill="#161b22" opacity="0.4"/>
<rect x="408" y="248" width="34" height="22" rx="2" fill="#161b22" opacity="0.4"/>
<rect x="444" y="248" width="34" height="22" rx="2" fill="#3fb950" opacity="0.72"/>
<text x="461" y="262" text-anchor="middle" class="t" font-size="9" fill="#0d1117">19</text>
<rect x="480" y="248" width="34" height="22" rx="2" fill="#161b22" opacity="0.4"/>
<rect x="516" y="248" width="34" height="22" rx="2" fill="#161b22" opacity="0.4"/>
<rect x="552" y="248" width="34" height="22" rx="2" fill="#161b22" opacity="0.4"/>
<rect x="588" y="248" width="34" height="22" rx="2" fill="#161b22" opacity="0.4"/>
<rect x="624" y="248" width="34" height="22" rx="2" fill="#161b22" opacity="0.4"/>
<rect x="660" y="248" width="34" height="22" rx="2" fill="#161b22" opacity="0.4"/>
<rect x="696" y="248" width="34" height="22" rx="2" fill="#161b22" opacity="0.4"/>
<rect x="732" y="248" width="34" height="22" rx="2" fill="#161b22" opacity="0.4"/>
<rect x="768" y="248" width="34" height="22" rx="2" fill="#161b22" opacity="0.4"/>
<rect x="804" y="248" width="34" height="22" rx="2" fill="#161b22" opacity="0.4"/>
<rect x="840" y="248" width="34" height="22" rx="2" fill="#161b22" opacity="0.4"/>
<rect x="876" y="248" width="34" height="22" rx="2" fill="#161b22" opacity="0.4"/>
<rect x="912" y="248" width="34" height="22" rx="2" fill="#161b22" opacity="0.4"/>
<rect x="948" y="248" width="34" height="22" rx="2" fill="#161b22" opacity="0.4"/>
<rect x="984" y="248" width="34" height="22" rx="2" fill="#161b22" opacity="0.4"/>
<rect x="1020" y="248" width="34" height="22" rx="2" fill="#161b22" opacity="0.4"/>
<text x="292" y="287" text-anchor="end" class="t" font-size="10" fill="#e6edf3">guild/Enterprise/L3/views</text>
<text x="292" y="297" text-anchor="end" class="t" font-size="9" fill="#8b949e">19</text>
<rect x="300" y="272" width="34" height="22" rx="2" fill="#161b22" opacity="0.4"/>
<rect x="336" y="272" width="34" height="22" rx="2" fill="#161b22" opacity="0.4"/>
<rect x="372" y="272" width="34" height="22" rx="2" fill="#161b22" opacity="0.4"/>
<rect x="408" y="272" width="34" height="22" rx="2" fill="#161b22" opacity="0.4"/>
<rect x="444" y="272" width="34" height="22" rx="2" fill="#3fb950" opacity="0.72"/>
<text x="461" y="286" text-anchor="middle" class="t" font-size="9" fill="#0d1117">19</text>
<rect x="480" y="272" width="34" height="22" rx="2" fill="#161b22" opacity="0.4"/>
<rect x="516" y="272" width="34" height="22" rx="2" fill="#161b22" opacity="0.4"/>
<rect x="552" y="272" width="34" height="22" rx="2" fill="#161b22" opacity="0.4"/>
<rect x="588" y="272" width="34" height="22" rx="2" fill="#161b22" opacity="0.4"/>
<rect x="624" y="272" width="34" height="22" rx="2" fill="#161b22" opacity="0.4"/>
<rect x="660" y="272" width="34" height="22" rx="2" fill="#161b22" opacity="0.4"/>
<rect x="696" y="272" width="34" height="22" rx="2" fill="#161b22" opacity="0.4"/>
<rect x="732" y="272" width="34" height="22" rx="2" fill="#161b22" opacity="0.4"/>
<rect x="768" y="272" width="34" height="22" rx="2" fill="#161b22" opacity="0.4"/>
<rect x="804" y="272" width="34" height="22" rx="2" fill="#161b22" opacity="0.4"/>
<rect x="840" y="272" width="34" height="22" rx="2" fill="#161b22" opacity="0.4"/>
<rect x="876" y="272" width="34" height="22" rx="2" fill="#161b22" opacity="0.4"/>
<rect x="912" y="272" width="34" height="22" rx="2" fill="#161b22" opacity="0.4"/>
<rect x="948" y="272" width="34" height="22" rx="2" fill="#161b22" opacity="0.4"/>
<rect x="984" y="272" width="34" height="22" rx="2" fill="#161b22" opacity="0.4"/>
<rect x="1020" y="272" width="34" height="22" rx="2" fill="#161b22" opacity="0.4"/>
<text x="292" y="311" text-anchor="end" class="t" font-size="10" fill="#e6edf3">guild/Enterprise/L4/svg/instances/organisms</text>
<text x="292" y="321" text-anchor="end" class="t" font-size="9" fill="#8b949e">19</text>
<rect x="300" y="296" width="34" height="22" rx="2" fill="#161b22" opacity="0.4"/>
<rect x="336" y="296" width="34" height="22" rx="2" fill="#161b22" opacity="0.4"/>
<rect x="372" y="296" width="34" height="22" rx="2" fill="#161b22" opacity="0.4"/>
<rect x="408" y="296" width="34" height="22" rx="2" fill="#161b22" opacity="0.4"/>
<rect x="444" y="296" width="34" height="22" rx="2" fill="#161b22" opacity="0.4"/>
<rect x="480" y="296" width="34" height="22" rx="2" fill="#161b22" opacity="0.4"/>
<rect x="516" y="296" width="34" height="22" rx="2" fill="#161b22" opacity="0.4"/>
<rect x="552" y="296" width="34" height="22" rx="2" fill="#161b22" opacity="0.4"/>
<rect x="588" y="296" width="34" height="22" rx="2" fill="#161b22" opacity="0.4"/>
<rect x="624" y="296" width="34" height="22" rx="2" fill="#161b22" opacity="0.4"/>
<rect x="660" y="296" width="34" height="22" rx="2" fill="#161b22" opacity="0.4"/>
<rect x="696" y="296" width="34" height="22" rx="2" fill="#161b22" opacity="0.4"/>
<rect x="732" y="296" width="34" height="22" rx="2" fill="#3fb950" opacity="0.72"/>
<text x="749" y="310" text-anchor="middle" class="t" font-size="9" fill="#0d1117">19</text>
<rect x="768" y="296" width="34" height="22" rx="2" fill="#161b22" opacity="0.4"/>
<rect x="804" y="296" width="34" height="22" rx="2" fill="#161b22" opacity="0.4"/>
<rect x="840" y="296" width="34" height="22" rx="2" fill="#161b22" opacity="0.4"/>
<rect x="876" y="296" width="34" height="22" rx="2" fill="#161b22" opacity="0.4"/>
<rect x="912" y="296" width="34" height="22" rx="2" fill="#161b22" opacity="0.4"/>
<rect x="948" y="296" width="34" height="22" rx="2" fill="#161b22" opacity="0.4"/>
<rect x="984" y="296" width="34" height="22" rx="2" fill="#161b22" opacity="0.4"/>
<rect x="1020" y="296" width="34" height="22" rx="2" fill="#161b22" opacity="0.4"/>
<text x="292" y="335" text-anchor="end" class="t" font-size="10" fill="#e6edf3">guild/web/pages</text>
<text x="292" y="345" text-anchor="end" class="t" font-size="9" fill="#8b949e">19</text>
<rect x="300" y="320" width="34" height="22" rx="2" fill="#161b22" opacity="0.4"/>
<rect x="336" y="320" width="34" height="22" rx="2" fill="#161b22" opacity="0.4"/>
<rect x="372" y="320" width="34" height="22" rx="2" fill="#161b22" opacity="0.4"/>
<rect x="408" y="320" width="34" height="22" rx="2" fill="#3fb950" opacity="0.72"/>
<text x="425" y="334" text-anchor="middle" class="t" font-size="9" fill="#0d1117">19</text>
<rect x="444" y="320" width="34" height="22" rx="2" fill="#161b22" opacity="0.4"/>
<rect x="480" y="320" width="34" height="22" rx="2" fill="#161b22" opacity="0.4"/>
<rect x="516" y="320" width="34" height="22" rx="2" fill="#161b22" opacity="0.4"/>
<rect x="552" y="320" width="34" height="22" rx="2" fill="#161b22" opacity="0.4"/>
<rect x="588" y="320" width="34" height="22" rx="2" fill="#161b22" opacity="0.4"/>
<rect x="624" y="320" width="34" height="22" rx="2" fill="#161b22" opacity="0.4"/>
<rect x="660" y="320" width="34" height="22" rx="2" fill="#161b22" opacity="0.4"/>
<rect x="696" y="320" width="34" height="22" rx="2" fill="#161b22" opacity="0.4"/>
<rect x="732" y="320" width="34" height="22" rx="2" fill="#161b22" opacity="0.4"/>
<rect x="768" y="320" width="34" height="22" rx="2" fill="#161b22" opacity="0.4"/>
<rect x="804" y="320" width="34" height="22" rx="2" fill="#161b22" opacity="0.4"/>
<rect x="840" y="320" width="34" height="22" rx="2" fill="#161b22" opacity="0.4"/>
<rect x="876" y="320" width="34" height="22" rx="2" fill="#161b22" opacity="0.4"/>
<rect x="912" y="320" width="34" height="22" rx="2" fill="#161b22" opacity="0.4"/>
<rect x="948" y="320" width="34" height="22" rx="2" fill="#161b22" opacity="0.4"/>
<rect x="984" y="320" width="34" height="22" rx="2" fill="#161b22" opacity="0.4"/>
<rect x="1020" y="320" width="34" height="22" rx="2" fill="#161b22" opacity="0.4"/>
<text x="292" y="359" text-anchor="end" class="t" font-size="10" fill="#e6edf3">…L2/hmi/web/components/udts/instances/atoms</text>
<text x="292" y="369" text-anchor="end" class="t" font-size="9" fill="#8b949e">11</text>
<rect x="300" y="344" width="34" height="22" rx="2" fill="#161b22" opacity="0.4"/>
<rect x="336" y="344" width="34" height="22" rx="2" fill="#161b22" opacity="0.4"/>
<rect x="372" y="344" width="34" height="22" rx="2" fill="#161b22" opacity="0.4"/>
<rect x="408" y="344" width="34" height="22" rx="2" fill="#161b22" opacity="0.4"/>
<rect x="444" y="344" width="34" height="22" rx="2" fill="#161b22" opacity="0.4"/>
<rect x="480" y="344" width="34" height="22" rx="2" fill="#3fb950" opacity="0.63"/>
<text x="497" y="358" text-anchor="middle" class="t" font-size="9" fill="#0d1117">11</text>
<rect x="516" y="344" width="34" height="22" rx="2" fill="#161b22" opacity="0.4"/>
<rect x="552" y="344" width="34" height="22" rx="2" fill="#161b22" opacity="0.4"/>
<rect x="588" y="344" width="34" height="22" rx="2" fill="#161b22" opacity="0.4"/>
<rect x="624" y="344" width="34" height="22" rx="2" fill="#161b22" opacity="0.4"/>
<rect x="660" y="344" width="34" height="22" rx="2" fill="#161b22" opacity="0.4"/>
<rect x="696" y="344" width="34" height="22" rx="2" fill="#161b22" opacity="0.4"/>
<rect x="732" y="344" width="34" height="22" rx="2" fill="#161b22" opacity="0.4"/>
<rect x="768" y="344" width="34" height="22" rx="2" fill="#161b22" opacity="0.4"/>
<rect x="804" y="344" width="34" height="22" rx="2" fill="#161b22" opacity="0.4"/>
<rect x="840" y="344" width="34" height="22" rx="2" fill="#161b22" opacity="0.4"/>
<rect x="876" y="344" width="34" height="22" rx="2" fill="#161b22" opacity="0.4"/>
<rect x="912" y="344" width="34" height="22" rx="2" fill="#161b22" opacity="0.4"/>
<rect x="948" y="344" width="34" height="22" rx="2" fill="#161b22" opacity="0.4"/>
<rect x="984" y="344" width="34" height="22" rx="2" fill="#161b22" opacity="0.4"/>
<rect x="1020" y="344" width="34" height="22" rx="2" fill="#161b22" opacity="0.4"/>
<text x="292" y="383" text-anchor="end" class="t" font-size="10" fill="#e6edf3">…erprise/L3/components/udts/instances/atoms</text>
<text x="292" y="393" text-anchor="end" class="t" font-size="9" fill="#8b949e">11</text>
<rect x="300" y="368" width="34" height="22" rx="2" fill="#161b22" opacity="0.4"/>
<rect x="336" y="368" width="34" height="22" rx="2" fill="#161b22" opacity="0.4"/>
<rect x="372" y="368" width="34" height="22" rx="2" fill="#161b22" opacity="0.4"/>
<rect x="408" y="368" width="34" height="22" rx="2" fill="#161b22" opacity="0.4"/>
<rect x="444" y="368" width="34" height="22" rx="2" fill="#161b22" opacity="0.4"/>
<rect x="480" y="368" width="34" height="22" rx="2" fill="#3fb950" opacity="0.63"/>
<text x="497" y="382" text-anchor="middle" class="t" font-size="9" fill="#0d1117">11</text>
<rect x="516" y="368" width="34" height="22" rx="2" fill="#161b22" opacity="0.4"/>
<rect x="552" y="368" width="34" height="22" rx="2" fill="#161b22" opacity="0.4"/>
<rect x="588" y="368" width="34" height="22" rx="2" fill="#161b22" opacity="0.4"/>
<rect x="624" y="368" width="34" height="22" rx="2" fill="#161b22" opacity="0.4"/>
<rect x="660" y="368" width="34" height="22" rx="2" fill="#161b22" opacity="0.4"/>
<rect x="696" y="368" width="34" height="22" rx="2" fill="#161b22" opacity="0.4"/>
<rect x="732" y="368" width="34" height="22" rx="2" fill="#161b22" opacity="0.4"/>
<rect x="768" y="368" width="34" height="22" rx="2" fill="#161b22" opacity="0.4"/>
<rect x="804" y="368" width="34" height="22" rx="2" fill="#161b22" opacity="0.4"/>
<rect x="840" y="368" width="34" height="22" rx="2" fill="#161b22" opacity="0.4"/>
<rect x="876" y="368" width="34" height="22" rx="2" fill="#161b22" opacity="0.4"/>
<rect x="912" y="368" width="34" height="22" rx="2" fill="#161b22" opacity="0.4"/>
<rect x="948" y="368" width="34" height="22" rx="2" fill="#161b22" opacity="0.4"/>
<rect x="984" y="368" width="34" height="22" rx="2" fill="#161b22" opacity="0.4"/>
<rect x="1020" y="368" width="34" height="22" rx="2" fill="#161b22" opacity="0.4"/>
<text x="292" y="407" text-anchor="end" class="t" font-size="10" fill="#e6edf3">guild/Enterprise/L4/svg/instances/atoms</text>
<text x="292" y="417" text-anchor="end" class="t" font-size="9" fill="#8b949e">11</text>
<rect x="300" y="392" width="34" height="22" rx="2" fill="#161b22" opacity="0.4"/>
<rect x="336" y="392" width="34" height="22" rx="2" fill="#161b22" opacity="0.4"/>
<rect x="372" y="392" width="34" height="22" rx="2" fill="#161b22" opacity="0.4"/>
<rect x="408" y="392" width="34" height="22" rx="2" fill="#161b22" opacity="0.4"/>
<rect x="444" y="392" width="34" height="22" rx="2" fill="#161b22" opacity="0.4"/>
<rect x="480" y="392" width="34" height="22" rx="2" fill="#161b22" opacity="0.4"/>
<rect x="516" y="392" width="34" height="22" rx="2" fill="#161b22" opacity="0.4"/>
<rect x="552" y="392" width="34" height="22" rx="2" fill="#161b22" opacity="0.4"/>
<rect x="588" y="392" width="34" height="22" rx="2" fill="#161b22" opacity="0.4"/>
<rect x="624" y="392" width="34" height="22" rx="2" fill="#161b22" opacity="0.4"/>
<rect x="660" y="392" width="34" height="22" rx="2" fill="#3fb950" opacity="0.63"/>
<text x="677" y="406" text-anchor="middle" class="t" font-size="9" fill="#0d1117">11</text>
<rect x="696" y="392" width="34" height="22" rx="2" fill="#161b22" opacity="0.4"/>
<rect x="732" y="392" width="34" height="22" rx="2" fill="#161b22" opacity="0.4"/>
<rect x="768" y="392" width="34" height="22" rx="2" fill="#161b22" opacity="0.4"/>
<rect x="804" y="392" width="34" height="22" rx="2" fill="#161b22" opacity="0.4"/>
<rect x="840" y="392" width="34" height="22" rx="2" fill="#161b22" opacity="0.4"/>
<rect x="876" y="392" width="34" height="22" rx="2" fill="#161b22" opacity="0.4"/>
<rect x="912" y="392" width="34" height="22" rx="2" fill="#161b22" opacity="0.4"/>
<rect x="948" y="392" width="34" height="22" rx="2" fill="#161b22" opacity="0.4"/>
<rect x="984" y="392" width="34" height="22" rx="2" fill="#161b22" opacity="0.4"/>
<rect x="1020" y="392" width="34" height="22" rx="2" fill="#161b22" opacity="0.4"/>
<text x="292" y="431" text-anchor="end" class="t" font-size="10" fill="#e6edf3">guild/Enterprise/L2/state</text>
<text x="292" y="441" text-anchor="end" class="t" font-size="9" fill="#8b949e">9</text>
<rect x="300" y="416" width="34" height="22" rx="2" fill="#161b22" opacity="0.4"/>
<rect x="336" y="416" width="34" height="22" rx="2" fill="#161b22" opacity="0.4"/>
<rect x="372" y="416" width="34" height="22" rx="2" fill="#161b22" opacity="0.4"/>
<rect x="408" y="416" width="34" height="22" rx="2" fill="#161b22" opacity="0.4"/>
<rect x="444" y="416" width="34" height="22" rx="2" fill="#161b22" opacity="0.4"/>
<rect x="480" y="416" width="34" height="22" rx="2" fill="#161b22" opacity="0.4"/>
<rect x="516" y="416" width="34" height="22" rx="2" fill="#161b22" opacity="0.4"/>
<rect x="552" y="416" width="34" height="22" rx="2" fill="#161b22" opacity="0.4"/>
<rect x="588" y="416" width="34" height="22" rx="2" fill="#161b22" opacity="0.4"/>
<rect x="624" y="416" width="34" height="22" rx="2" fill="#161b22" opacity="0.4"/>
<rect x="660" y="416" width="34" height="22" rx="2" fill="#161b22" opacity="0.4"/>
<rect x="696" y="416" width="34" height="22" rx="2" fill="#161b22" opacity="0.4"/>
<rect x="732" y="416" width="34" height="22" rx="2" fill="#161b22" opacity="0.4"/>
<rect x="768" y="416" width="34" height="22" rx="2" fill="#3fb950" opacity="0.59"/>
<text x="785" y="430" text-anchor="middle" class="t" font-size="9" fill="#0d1117">9</text>
<rect x="804" y="416" width="34" height="22" rx="2" fill="#161b22" opacity="0.4"/>
<rect x="840" y="416" width="34" height="22" rx="2" fill="#161b22" opacity="0.4"/>
<rect x="876" y="416" width="34" height="22" rx="2" fill="#161b22" opacity="0.4"/>
<rect x="912" y="416" width="34" height="22" rx="2" fill="#161b22" opacity="0.4"/>
<rect x="948" y="416" width="34" height="22" rx="2" fill="#161b22" opacity="0.4"/>
<rect x="984" y="416" width="34" height="22" rx="2" fill="#161b22" opacity="0.4"/>
<rect x="1020" y="416" width="34" height="22" rx="2" fill="#161b22" opacity="0.4"/>
<text x="292" y="455" text-anchor="end" class="t" font-size="10" fill="#e6edf3">…mi/web/components/udts/instances/molecules</text>
<text x="292" y="465" text-anchor="end" class="t" font-size="9" fill="#8b949e">8</text>
<rect x="300" y="440" width="34" height="22" rx="2" fill="#161b22" opacity="0.4"/>
<rect x="336" y="440" width="34" height="22" rx="2" fill="#161b22" opacity="0.4"/>
<rect x="372" y="440" width="34" height="22" rx="2" fill="#161b22" opacity="0.4"/>
<rect x="408" y="440" width="34" height="22" rx="2" fill="#161b22" opacity="0.4"/>
<rect x="444" y="440" width="34" height="22" rx="2" fill="#161b22" opacity="0.4"/>
<rect x="480" y="440" width="34" height="22" rx="2" fill="#3fb950" opacity="0.57"/>
<text x="497" y="454" text-anchor="middle" class="t" font-size="9" fill="#0d1117">8</text>
<rect x="516" y="440" width="34" height="22" rx="2" fill="#161b22" opacity="0.4"/>
<rect x="552" y="440" width="34" height="22" rx="2" fill="#161b22" opacity="0.4"/>
<rect x="588" y="440" width="34" height="22" rx="2" fill="#161b22" opacity="0.4"/>
<rect x="624" y="440" width="34" height="22" rx="2" fill="#161b22" opacity="0.4"/>
<rect x="660" y="440" width="34" height="22" rx="2" fill="#161b22" opacity="0.4"/>
<rect x="696" y="440" width="34" height="22" rx="2" fill="#161b22" opacity="0.4"/>
<rect x="732" y="440" width="34" height="22" rx="2" fill="#161b22" opacity="0.4"/>
<rect x="768" y="440" width="34" height="22" rx="2" fill="#161b22" opacity="0.4"/>
<rect x="804" y="440" width="34" height="22" rx="2" fill="#161b22" opacity="0.4"/>
<rect x="840" y="440" width="34" height="22" rx="2" fill="#161b22" opacity="0.4"/>
<rect x="876" y="440" width="34" height="22" rx="2" fill="#161b22" opacity="0.4"/>
<rect x="912" y="440" width="34" height="22" rx="2" fill="#161b22" opacity="0.4"/>
<rect x="948" y="440" width="34" height="22" rx="2" fill="#161b22" opacity="0.4"/>
<rect x="984" y="440" width="34" height="22" rx="2" fill="#161b22" opacity="0.4"/>
<rect x="1020" y="440" width="34" height="22" rx="2" fill="#161b22" opacity="0.4"/>
<text x="292" y="479" text-anchor="end" class="t" font-size="10" fill="#e6edf3">…mi/web/components/udts/instances/organisms</text>
<text x="292" y="489" text-anchor="end" class="t" font-size="9" fill="#8b949e">8</text>
<rect x="300" y="464" width="34" height="22" rx="2" fill="#161b22" opacity="0.4"/>
<rect x="336" y="464" width="34" height="22" rx="2" fill="#161b22" opacity="0.4"/>
<rect x="372" y="464" width="34" height="22" rx="2" fill="#161b22" opacity="0.4"/>
<rect x="408" y="464" width="34" height="22" rx="2" fill="#161b22" opacity="0.4"/>
<rect x="444" y="464" width="34" height="22" rx="2" fill="#161b22" opacity="0.4"/>
<rect x="480" y="464" width="34" height="22" rx="2" fill="#3fb950" opacity="0.57"/>
<text x="497" y="478" text-anchor="middle" class="t" font-size="9" fill="#0d1117">8</text>
<rect x="516" y="464" width="34" height="22" rx="2" fill="#161b22" opacity="0.4"/>
<rect x="552" y="464" width="34" height="22" rx="2" fill="#161b22" opacity="0.4"/>
<rect x="588" y="464" width="34" height="22" rx="2" fill="#161b22" opacity="0.4"/>
<rect x="624" y="464" width="34" height="22" rx="2" fill="#161b22" opacity="0.4"/>
<rect x="660" y="464" width="34" height="22" rx="2" fill="#161b22" opacity="0.4"/>
<rect x="696" y="464" width="34" height="22" rx="2" fill="#161b22" opacity="0.4"/>
<rect x="732" y="464" width="34" height="22" rx="2" fill="#161b22" opacity="0.4"/>
<rect x="768" y="464" width="34" height="22" rx="2" fill="#161b22" opacity="0.4"/>
<rect x="804" y="464" width="34" height="22" rx="2" fill="#161b22" opacity="0.4"/>
<rect x="840" y="464" width="34" height="22" rx="2" fill="#161b22" opacity="0.4"/>
<rect x="876" y="464" width="34" height="22" rx="2" fill="#161b22" opacity="0.4"/>
<rect x="912" y="464" width="34" height="22" rx="2" fill="#161b22" opacity="0.4"/>
<rect x="948" y="464" width="34" height="22" rx="2" fill="#161b22" opacity="0.4"/>
<rect x="984" y="464" width="34" height="22" rx="2" fill="#161b22" opacity="0.4"/>
<rect x="1020" y="464" width="34" height="22" rx="2" fill="#161b22" opacity="0.4"/>
<text x="292" y="503" text-anchor="end" class="t" font-size="10" fill="#e6edf3">guild/Enterprise/L4/members/udts/instances</text>
<text x="292" y="513" text-anchor="end" class="t" font-size="9" fill="#8b949e">8</text>
<rect x="300" y="488" width="34" height="22" rx="2" fill="#161b22" opacity="0.4"/>
<rect x="336" y="488" width="34" height="22" rx="2" fill="#161b22" opacity="0.4"/>
<rect x="372" y="488" width="34" height="22" rx="2" fill="#161b22" opacity="0.4"/>
<rect x="408" y="488" width="34" height="22" rx="2" fill="#161b22" opacity="0.4"/>
<rect x="444" y="488" width="34" height="22" rx="2" fill="#161b22" opacity="0.4"/>
<rect x="480" y="488" width="34" height="22" rx="2" fill="#161b22" opacity="0.4"/>
<rect x="516" y="488" width="34" height="22" rx="2" fill="#161b22" opacity="0.4"/>
<rect x="552" y="488" width="34" height="22" rx="2" fill="#161b22" opacity="0.4"/>
<rect x="588" y="488" width="34" height="22" rx="2" fill="#3fb950" opacity="0.57"/>
<text x="605" y="502" text-anchor="middle" class="t" font-size="9" fill="#0d1117">8</text>
<rect x="624" y="488" width="34" height="22" rx="2" fill="#161b22" opacity="0.4"/>
<rect x="660" y="488" width="34" height="22" rx="2" fill="#161b22" opacity="0.4"/>
<rect x="696" y="488" width="34" height="22" rx="2" fill="#161b22" opacity="0.4"/>
<rect x="732" y="488" width="34" height="22" rx="2" fill="#161b22" opacity="0.4"/>
<rect x="768" y="488" width="34" height="22" rx="2" fill="#161b22" opacity="0.4"/>
<rect x="804" y="488" width="34" height="22" rx="2" fill="#161b22" opacity="0.4"/>
<rect x="840" y="488" width="34" height="22" rx="2" fill="#161b22" opacity="0.4"/>
<rect x="876" y="488" width="34" height="22" rx="2" fill="#161b22" opacity="0.4"/>
<rect x="912" y="488" width="34" height="22" rx="2" fill="#161b22" opacity="0.4"/>
<rect x="948" y="488" width="34" height="22" rx="2" fill="#161b22" opacity="0.4"/>
<rect x="984" y="488" width="34" height="22" rx="2" fill="#161b22" opacity="0.4"/>
<rect x="1020" y="488" width="34" height="22" rx="2" fill="#161b22" opacity="0.4"/>
<text x="24" y="562" class="t sub">legend:</text>
<rect x="100" y="552" width="20" height="12" fill="#3fb950" opacity="0.2"/>
<rect x="130" y="552" width="20" height="12" fill="#3fb950" opacity="0.4"/>
<rect x="160" y="552" width="20" height="12" fill="#3fb950" opacity="0.6"/>
<rect x="190" y="552" width="20" height="12" fill="#3fb950" opacity="0.8"/>
<rect x="220" y="552" width="20" height="12" fill="#3fb950" opacity="1.0"/>
<text x="260" y="562" class="t sub">1 → many (log-scaled)</text>
</svg>