<svg xmlns="http://www.w3.org/2000/svg" viewBox="0 0 950 174" width="950" height="174" role="img" aria-label="ACG tag grid">
<defs>
    <linearGradient id="gBg" x1="0" x2="1" y1="0" y2="1">
      <stop offset="0" stop-color="#0d1117"/>
      <stop offset="1" stop-color="#161b22"/>
    </linearGradient>
    <style>
      .t{font-family:'SFMono-Regular',Consolas,monospace}
      .lb{fill:#8b949e;font-size:10px;text-transform:uppercase;letter-spacing:1.6px}
      .va{fill:#e6edf3;font-size:20px;font-weight:700}
      .vs{fill:#e6edf3;font-size:14px;font-weight:600}
      .lo{fill:#79c0ff;font-size:11px}
      .sub{fill:#8b949e;font-size:11px}
      .g{fill:#3fb950} .a{fill:#e3b341} .r{fill:#f85149}
      .p{fill:#a371f7} .o{fill:#f0883e}
      .pulse{animation:plz 1.8s ease-out infinite}
      @keyframes plz{
        0%{transform:scale(1);opacity:.85}
        45%{transform:scale(1.35);opacity:.3}
        100%{transform:scale(1.8);opacity:0}
      }
      .spin{animation:sp 4s linear infinite;transform-origin:center}
      @keyframes sp{from{transform:rotate(0)}to{transform:rotate(360deg)}}
    </style>
  </defs>
<rect width="950" height="36" rx="10" fill="url(#gBg)"/>
  <rect x="0" y="0" width="950" height="36" rx="10" fill="#161b22"/>
  <rect x="0" y="26" width="950" height="10" fill="#161b22"/>
  <circle cx="22" cy="18" r="6" fill="#ff5f56"/>
  <circle cx="44" cy="18" r="6" fill="#ffbd2e"/>
  <circle cx="66" cy="18" r="6" fill="#27c93f"/>
  <text x="475" y="22" text-anchor="middle" class="t" font-size="12" fill="#8b949e">⚒ dynamic tags · 2 GitHub-Issue tags</text>
<rect y="36" width="950" height="138" fill="url(#gBg)"/>
<rect x="14" y="56" width="220" height="90" rx="6" fill="#161b22" stroke="#30363d" stroke-width="1"/><g style="transform-origin:36px 80px">
    <circle cx="36" cy="80" r="9" fill="none" stroke="#3fb950" stroke-width="2" opacity=".5" class="pulse"/>
    <circle cx="36" cy="80" r="9" fill="none" stroke="#3fb950" stroke-width="2" opacity=".5" class="pulse" style="animation-delay:.6s"/>
  </g>
  <circle cx="36" cy="80" r="6" class="g"/><text x="54" y="84" class="t lb">demo.terminal-cmd</text><text x="28" y="116" class="t va">ready</text><text x="28" y="136" class="t sub">#5 · 0 edits</text>
<rect x="248" y="56" width="220" height="90" rx="6" fill="#161b22" stroke="#30363d" stroke-width="1"/><g style="transform-origin:270px 80px">
    <circle cx="270" cy="80" r="9" fill="none" stroke="#3fb950" stroke-width="2" opacity=".5" class="pulse"/>
    <circle cx="270" cy="80" r="9" fill="none" stroke="#3fb950" stroke-width="2" opacity=".5" class="pulse" style="animation-delay:.6s"/>
  </g>
  <circle cx="270" cy="80" r="6" class="g"/><text x="288" y="84" class="t lb">demo.heartbeat</text><text x="262" y="116" class="t va">1777238094</text><text x="262" y="136" class="t sub">#4 · 349 edits</text>
</svg>